<?xml version="1.0" encoding="UTF-8"?>
<!DOCTYPE svg PUBLIC "-//W3C//DTD SVG 1.1//EN" "http://www.w3.org/Graphics/SVG/1.1/DTD/svg11.dtd">
<svg xmlns="http://www.w3.org/2000/svg" version="1.1" width="269px" height="269px" style="shape-rendering:geometricPrecision; text-rendering:geometricPrecision; image-rendering:optimizeQuality; fill-rule:evenodd; clip-rule:evenodd" xmlns:xlink="http://www.w3.org/1999/xlink">
<g><path style="opacity:0.004" fill="#010101" d="M -0.5,-0.5 C 27.8333,-0.5 56.1667,-0.5 84.5,-0.5C 85.819,1.46837 85.819,3.46837 84.5,5.5C 85.0831,7.00158 85.9164,8.33492 87,9.5C 88.6665,8.65975 88.8331,9.15975 87.5,11C 88.4491,11.6172 89.2825,11.4506 90,10.5C 91.6064,13.5898 93.273,15.9231 95,17.5C 97.1734,14.723 97.6734,14.8897 96.5,18C 98.348,19.518 99.848,21.3513 101,23.5C 102.902,24.2063 104.735,25.2063 106.5,26.5C 106.706,24.4508 107.539,24.1175 109,25.5C 109.464,24.9056 109.631,24.2389 109.5,23.5C 110.167,23.5 110.5,23.1667 110.5,22.5C 110.79,17.3551 110.79,12.1884 110.5,7C 108.21,4.88396 106.544,2.38396 105.5,-0.5C 159.167,-0.5 212.833,-0.5 266.5,-0.5C 266.5,89.1667 266.5,178.833 266.5,268.5C 177.5,268.5 88.5,268.5 -0.5,268.5C -0.5,178.833 -0.5,89.1667 -0.5,-0.5 Z"/></g>
<g><path style="opacity:0.004" fill="#150aed" d="M 84.5,-0.5 C 85.1667,-0.5 85.8333,-0.5 86.5,-0.5C 87.4412,1.46641 88.4412,3.46641 89.5,5.5C 92.4021,8.20019 95.5688,10.5335 99,12.5C 99.8854,15 101.052,17.3333 102.5,19.5C 105.014,20.5883 107.348,21.9217 109.5,23.5C 109.631,24.2389 109.464,24.9056 109,25.5C 107.539,24.1175 106.706,24.4508 106.5,26.5C 104.735,25.2063 102.902,24.2063 101,23.5C 99.848,21.3513 98.348,19.518 96.5,18C 97.6734,14.8897 97.1734,14.723 95,17.5C 93.273,15.9231 91.6064,13.5898 90,10.5C 89.2825,11.4506 88.4491,11.6172 87.5,11C 88.8331,9.15975 88.6665,8.65975 87,9.5C 85.9164,8.33492 85.0831,7.00158 84.5,5.5C 85.819,3.46837 85.819,1.46837 84.5,-0.5 Z"/></g>
<g><path style="opacity:0.004" fill="#17f9fe" d="M 86.5,-0.5 C 90.1667,-0.5 93.8333,-0.5 97.5,-0.5C 97.4614,0.75618 97.9614,1.75618 99,2.5C 100.494,1.25278 101.994,1.25278 103.5,2.5C 106.393,5.71421 108.393,9.38088 109.5,13.5C 108.652,16.6049 108.985,19.6049 110.5,22.5C 110.5,23.1667 110.167,23.5 109.5,23.5C 107.348,21.9217 105.014,20.5883 102.5,19.5C 101.052,17.3333 99.8854,15 99,12.5C 95.5688,10.5335 92.4021,8.20019 89.5,5.5C 88.4412,3.46641 87.4412,1.46641 86.5,-0.5 Z"/></g>
<g><path style="opacity:0.004" fill="#0000ff" d="M 97.5,-0.5 C 100.167,-0.5 102.833,-0.5 105.5,-0.5C 106.544,2.38396 108.21,4.88396 110.5,7C 110.79,12.1884 110.79,17.3551 110.5,22.5C 108.985,19.6049 108.652,16.6049 109.5,13.5C 108.393,9.38088 106.393,5.71421 103.5,2.5C 101.994,1.25278 100.494,1.25278 99,2.5C 97.9614,1.75618 97.4614,0.75618 97.5,-0.5 Z"/></g>
<g><path style="opacity:0.004" fill="#74fffe" d="M 196.5,5.5 C 197.376,5.36912 198.043,5.70245 198.5,6.5C 195.709,10.5888 195.042,10.2554 196.5,5.5 Z"/></g>
<g><path style="opacity:0.004" fill="#74fffe" d="M 199.5,7.5 C 200.239,7.36899 200.906,7.53566 201.5,8C 200.333,9.16667 199.167,10.3333 198,11.5C 197.7,9.93434 198.2,8.60101 199.5,7.5 Z"/></g>
<g><path style="opacity:0.004" fill="#00fffe" d="M 204.5,8.5 C 203.4,9.60486 202.733,10.9382 202.5,12.5C 201.761,12.631 201.094,12.4643 200.5,12C 201.103,9.92857 202.436,8.76191 204.5,8.5 Z"/></g>
<g><path style="opacity:0.004" fill="#2c22c2" d="M 204.5,8.5 C 205.338,8.84171 205.672,9.50838 205.5,10.5C 204.227,11.0768 204.227,11.7435 205.5,12.5C 206.298,12.0431 206.631,11.3764 206.5,10.5C 207.167,10.5 207.5,10.8333 207.5,11.5C 207.443,12.609 207.11,13.609 206.5,14.5C 205.883,14.3893 205.383,14.056 205,13.5C 203.796,14.4706 203.296,15.4706 203.5,16.5C 201.3,15.6754 200.966,14.3421 202.5,12.5C 202.733,10.9382 203.4,9.60486 204.5,8.5 Z"/></g>
<g><path style="opacity:0.004" fill="#00fffe" d="M 205.5,10.5 C 205.833,10.5 206.167,10.5 206.5,10.5C 206.631,11.3764 206.298,12.0431 205.5,12.5C 204.227,11.7435 204.227,11.0768 205.5,10.5 Z"/></g>
<g><path style="opacity:0.004" fill="#00fffe" d="M 207.5,11.5 C 210.048,13.0135 209.715,14.0135 206.5,14.5C 207.11,13.609 207.443,12.609 207.5,11.5 Z"/></g>
<g><path style="opacity:0.004" fill="#48fffe" d="M 211.5,15.5 C 209.738,16.2623 208.738,17.5956 208.5,19.5C 207.527,19.0133 206.527,18.5133 205.5,18C 207.624,16.8783 209.457,15.3783 211,13.5C 211.464,14.0944 211.631,14.7611 211.5,15.5 Z"/></g>
<g><path style="opacity:0.004" fill="#0000ff" d="M 212.5,15.5 C 216.554,16.1959 217.221,17.8625 214.5,20.5C 214.414,19.5041 214.748,18.6708 215.5,18C 214.058,17.6232 213.058,16.7899 212.5,15.5 Z"/></g>
<g><path style="opacity:0.004" fill="#2e404f" d="M 211.5,15.5 C 211.833,15.5 212.167,15.5 212.5,15.5C 213.058,16.7899 214.058,17.6232 215.5,18C 214.748,18.6708 214.414,19.5041 214.5,20.5C 214.189,21.4778 213.522,22.1445 212.5,22.5C 211.099,21.4793 209.765,20.4793 208.5,19.5C 208.738,17.5956 209.738,16.2623 211.5,15.5 Z"/></g>
<g><path style="opacity:0.004" fill="#0000ff" d="M 106.5,26.5 C 107.289,26.7828 107.956,27.2828 108.5,28C 107.184,28.5281 106.517,28.0281 106.5,26.5 Z"/></g>
<g><path style="opacity:0.004" fill="#0000ff" d="M 206.5,27.5 C 207.397,28.5981 208.23,28.5981 209,27.5C 209.667,28.5 209.667,29.5 209,30.5C 207.583,29.9221 206.75,28.9221 206.5,27.5 Z"/></g>
<g><path style="opacity:1" fill="#efd2b8" d="M 232.5,34.5 C 233.823,44.6742 233.823,55.0075 232.5,65.5C 229.5,63.5 226.5,61.5 223.5,59.5C 210.481,71.0203 197.314,82.3537 184,93.5C 183.502,90.5184 183.335,87.5184 183.5,84.5C 188.163,79.6692 192.663,74.6692 197,69.5C 202.336,64.9961 207.503,60.3295 212.5,55.5C 219.167,48.5 225.833,41.5 232.5,34.5 Z"/></g>
<g><path style="opacity:1" fill="#f3cfab" d="M 36.5,34.5 C 52.1457,50.8123 68.1457,66.8123 84.5,82.5C 85.5932,86.1078 85.7599,89.7745 85,93.5C 84.6174,92.944 84.1174,92.6107 83.5,92.5C 71.0636,81.9042 58.7302,71.0708 46.5,60C 42.8669,60.989 39.5336,62.8224 36.5,65.5C 35.1768,55.0075 35.1768,44.6742 36.5,34.5 Z"/></g>
<g><path style="opacity:1" fill="#f9cca2" d="M 212.5,55.5 C 214.697,54.1554 217.03,52.9888 219.5,52C 221.636,47.5526 224.969,44.386 229.5,42.5C 230.086,42.7093 230.586,43.0426 231,43.5C 230.999,48.3335 230.832,53.1668 230.5,58C 227.953,57.6607 225.453,56.8274 223,55.5C 222.127,55.7355 221.293,56.0688 220.5,56.5C 218.214,59.1395 216.214,61.9728 214.5,65C 213.167,65.3333 211.833,65.6667 210.5,66C 208.928,71.6117 205.428,73.7783 200,72.5C 199.333,71.8333 199.333,71.1667 200,70.5C 202.489,67.1449 205.322,63.9782 208.5,61C 211.876,60.6929 213.21,58.8595 212.5,55.5 Z"/></g>
<g><path style="opacity:0.055" fill="#443c33" d="M 36.5,34.5 C 35.1768,44.6742 35.1768,55.0075 36.5,65.5C 39.5336,62.8224 42.8669,60.989 46.5,60C 58.7302,71.0708 71.0636,81.9042 83.5,92.5C 82.209,92.2627 81.209,92.596 80.5,93.5C 75.1179,88.7833 69.4513,84.45 63.5,80.5C 58.029,75.1992 52.3623,70.0325 46.5,65C 43.65,64.991 41.3167,66.1577 39.5,68.5C 37.2279,69.4411 35.2279,70.7745 33.5,72.5C 32.5919,70.5479 32.7586,68.5479 34,66.5C 34.1676,55.4849 34.6676,44.4849 35.5,33.5C 36.1067,33.6236 36.44,33.9569 36.5,34.5 Z"/></g>
<g><path style="opacity:1" fill="#3f3d36" d="M 232.5,34.5 C 232.56,33.9569 232.893,33.6236 233.5,33.5C 234.332,44.1511 234.832,54.8178 235,65.5C 235.946,67.7883 237.113,69.955 238.5,72C 237.944,72.3826 237.611,72.8826 237.5,73.5C 232.941,70.2977 228.441,66.9644 224,63.5C 215.042,71.0563 206.208,78.723 197.5,86.5C 192.833,90.5 188.167,94.5 183.5,98.5C 182.203,93.7331 182.203,89.0665 183.5,84.5C 183.335,87.5184 183.502,90.5184 184,93.5C 197.314,82.3537 210.481,71.0203 223.5,59.5C 226.5,61.5 229.5,63.5 232.5,65.5C 233.823,55.0075 233.823,44.6742 232.5,34.5 Z"/></g>
<g><path style="opacity:1" fill="#f8d8bb" d="M 63.5,80.5 C 63.5,81.5 63.5,82.5 63.5,83.5C 64.552,83.3505 65.552,83.5172 66.5,84C 69.187,87.6833 72.187,91.0166 75.5,94C 71.7563,96.1537 68.0896,95.9871 64.5,93.5C 63.8333,95.5 63.1667,97.5 62.5,99.5C 58.8335,102.878 56.0002,101.878 54,96.5C 53.3333,99.1667 52.6667,99.1667 52,96.5C 51.6667,96.8333 51.3333,97.1667 51,97.5C 48.0267,91.5398 43.6933,86.8731 38,83.5C 37.0373,80.3954 36.2039,77.2288 35.5,74C 36.3079,72.2942 37.6412,71.4609 39.5,71.5C 39.5,70.5 39.5,69.5 39.5,68.5C 41.3167,66.1577 43.65,64.991 46.5,65C 52.3623,70.0325 58.029,75.1992 63.5,80.5 Z"/></g>
<g><path style="opacity:1" fill="#fadec4" d="M 237.5,73.5 C 238.303,74.4232 238.47,75.4232 238,76.5C 233.948,81.712 230.115,87.0454 226.5,92.5C 224.806,93.5274 223.473,94.8608 222.5,96.5C 221.292,95.218 219.958,95.218 218.5,96.5C 217.314,99.5181 215.147,101.518 212,102.5C 211.333,103.833 210.667,105.167 210,106.5C 209.667,106.167 209.333,105.833 209,105.5C 209,106.833 209,108.167 209,109.5C 203.682,115.474 198.848,121.807 194.5,128.5C 190.45,129.773 186.45,129.606 182.5,128C 186.943,126.813 189.61,123.646 190.5,118.5C 192.078,117.702 193.744,117.202 195.5,117C 195.681,113.15 197.681,110.817 201.5,110C 200.692,107.912 199.692,105.912 198.5,104C 196.236,103.764 194.069,103.264 192,102.5C 190.227,106.757 187.394,107.59 183.5,105C 185.061,104.682 186.228,103.849 187,102.5C 187.495,100.527 187.662,98.5273 187.5,96.5C 188.833,96.5 190.167,96.5 191.5,96.5C 191.351,95.448 191.517,94.448 192,93.5C 194.454,91.5588 196.287,89.2254 197.5,86.5C 206.208,78.723 215.042,71.0563 224,63.5C 228.441,66.9644 232.941,70.2977 237.5,73.5 Z"/></g>
<g><path style="opacity:1" fill="#f2e3d1" d="M 197.5,86.5 C 196.287,89.2254 194.454,91.5588 192,93.5C 191.517,94.448 191.351,95.448 191.5,96.5C 190.167,96.5 188.833,96.5 187.5,96.5C 187.662,98.5273 187.495,100.527 187,102.5C 186.228,103.849 185.061,104.682 183.5,105C 187.394,107.59 190.227,106.757 192,102.5C 194.069,103.264 196.236,103.764 198.5,104C 199.692,105.912 200.692,107.912 201.5,110C 197.681,110.817 195.681,113.15 195.5,117C 193.744,117.202 192.078,117.702 190.5,118.5C 189.61,123.646 186.943,126.813 182.5,128C 186.45,129.606 190.45,129.773 194.5,128.5C 198.848,121.807 203.682,115.474 209,109.5C 209,108.167 209,106.833 209,105.5C 209.333,105.833 209.667,106.167 210,106.5C 210.667,105.167 211.333,103.833 212,102.5C 215.147,101.518 217.314,99.5181 218.5,96.5C 219.958,95.218 221.292,95.218 222.5,96.5C 214.418,107.65 206.085,118.65 197.5,129.5C 190.678,130.818 184.011,130.818 177.5,129.5C 183.442,122.221 189.775,115.221 196.5,108.5C 196.167,108.167 195.833,107.833 195.5,107.5C 190.659,110.421 185.659,113.088 180.5,115.5C 178.865,118.7 177.532,122.033 176.5,125.5C 173.216,127.117 170.549,129.45 168.5,132.5C 165.319,134.592 162.319,136.925 159.5,139.5C 159.5,138.5 159.5,137.5 159.5,136.5C 158.5,136.5 157.5,136.5 156.5,136.5C 161.416,132.926 166.083,128.926 170.5,124.5C 171.59,123.391 171.59,122.391 170.5,121.5C 163.137,126.843 155.804,132.176 148.5,137.5C 147.968,135.609 146.301,134.276 143.5,133.5C 156.418,121.372 169.751,109.705 183.5,98.5C 188.167,94.5 192.833,90.5 197.5,86.5 Z"/></g>
<g><path style="opacity:1" fill="#f5e1cd" d="M 39.5,68.5 C 39.5,69.5 39.5,70.5 39.5,71.5C 37.6412,71.4609 36.3079,72.2942 35.5,74C 36.2039,77.2288 37.0373,80.3954 38,83.5C 43.6933,86.8731 48.0267,91.5398 51,97.5C 51.3333,97.1667 51.6667,96.8333 52,96.5C 52.6667,99.1667 53.3333,99.1667 54,96.5C 56.0002,101.878 58.8335,102.878 62.5,99.5C 63.1667,97.5 63.8333,95.5 64.5,93.5C 68.0896,95.9871 71.7563,96.1537 75.5,94C 72.187,91.0166 69.187,87.6833 66.5,84C 65.552,83.5172 64.552,83.3505 63.5,83.5C 63.5,82.5 63.5,81.5 63.5,80.5C 69.4513,84.45 75.1179,88.7833 80.5,93.5C 92.9498,104.439 105.616,115.273 118.5,126C 121.371,128.703 124.038,131.536 126.5,134.5C 123.791,133.987 121.291,132.987 119,131.5C 118.5,131.833 118,132.167 117.5,132.5C 120.827,134.494 123.494,137.161 125.5,140.5C 115.925,134.271 106.591,127.605 97.5,120.5C 97.1667,120.667 96.8333,120.833 96.5,121C 97.8932,122.171 98.7265,123.671 99,125.5C 102.692,128.365 106.192,131.365 109.5,134.5C 109.389,135.117 109.056,135.617 108.5,136C 110.141,137.129 111.141,138.629 111.5,140.5C 104.583,135.757 98.083,130.424 92,124.5C 91.6097,121.896 90.7763,119.562 89.5,117.5C 87.6694,115.224 85.3361,113.391 82.5,112C 79.0754,110.492 75.7421,109.159 72.5,108C 76.3654,112.694 80.3654,117.194 84.5,121.5C 86.5,123.833 88.5,126.167 90.5,128.5C 87.7425,129.818 84.5758,130.485 81,130.5C 77.8333,130.167 74.6667,129.833 71.5,129.5C 62.1603,116.837 52.4937,104.504 42.5,92.5C 38.5502,86.8695 34.5502,81.2028 30.5,75.5C 31.1882,74.1451 32.1882,73.1451 33.5,72.5C 35.2279,70.7745 37.2279,69.4411 39.5,68.5 Z"/></g>
<g><path style="opacity:1" fill="#393936" d="M 89.5,117.5 C 86.4124,117.197 84.7458,118.53 84.5,121.5C 80.3654,117.194 76.3654,112.694 72.5,108C 75.7421,109.159 79.0754,110.492 82.5,112C 85.3361,113.391 87.6694,115.224 89.5,117.5 Z"/></g>
<g><path style="opacity:0.005" fill="#1d1e1d" d="M 177.5,129.5 C 176.533,130.806 175.199,131.473 173.5,131.5C 173.683,129.012 174.683,127.012 176.5,125.5C 177.532,122.033 178.865,118.7 180.5,115.5C 185.659,113.088 190.659,110.421 195.5,107.5C 195.833,107.833 196.167,108.167 196.5,108.5C 189.775,115.221 183.442,122.221 177.5,129.5 Z"/></g>
<g><path style="opacity:1" fill="#f6e6d2" d="M 46.5,102.5 C 55.3309,113.507 63.6643,124.841 71.5,136.5C 67.3964,134.524 64.2298,131.524 62,127.5C 57.5855,128.303 53.0855,128.803 48.5,129C 48.0257,130.729 47.0257,131.895 45.5,132.5C 45.1726,122.319 45.506,112.319 46.5,102.5 Z"/></g>
<g><path style="opacity:1" fill="#f7e7d2" d="M 222.5,102.5 C 223.494,112.319 223.827,122.319 223.5,132.5C 220.956,132.952 218.456,132.285 216,130.5C 212.634,131.995 209.468,131.662 206.5,129.5C 205.575,130.641 204.741,130.641 204,129.5C 203.162,130.999 202.329,131.332 201.5,130.5C 208.5,121.167 215.5,111.833 222.5,102.5 Z"/></g>
<g><path style="opacity:1" fill="#3b403f" d="M 42.5,92.5 C 52.4937,104.504 62.1603,116.837 71.5,129.5C 74.6667,129.833 77.8333,130.167 81,130.5C 84.5758,130.485 87.7425,129.818 90.5,128.5C 94.3002,130.963 96.9668,134.296 98.5,138.5C 92.1318,138.17 85.7985,138.504 79.5,139.5C 80.1799,140.86 80.8466,142.193 81.5,143.5C 80.596,144.209 80.2627,145.209 80.5,146.5C 77.5,143.167 74.5,139.833 71.5,136.5C 63.6643,124.841 55.3309,113.507 46.5,102.5C 45.9941,100.895 45.3274,100.561 44.5,101.5C 43.9965,98.5475 42.9965,95.7142 41.5,93C 41.7284,92.6012 42.0618,92.4346 42.5,92.5 Z"/></g>
<g><path style="opacity:1" fill="#3d3e3d" d="M 226.5,92.5 C 226.297,94.0443 225.63,95.3777 224.5,96.5C 225.644,102.746 225.644,109.08 224.5,115.5C 224.827,110.786 224.493,106.12 223.5,101.5C 222.893,101.624 222.56,101.957 222.5,102.5C 215.5,111.833 208.5,121.167 201.5,130.5C 198.936,133.28 196.603,136.28 194.5,139.5C 193.061,141.36 191.395,143.027 189.5,144.5C 188.833,144.167 188.167,143.833 187.5,143.5C 187.859,141.629 188.859,140.129 190.5,139C 184.175,138.5 177.842,138.334 171.5,138.5C 172.575,136.144 172.575,133.811 171.5,131.5C 170.522,131.977 169.689,132.643 169,133.5C 168.601,133.272 168.435,132.938 168.5,132.5C 170.549,129.45 173.216,127.117 176.5,125.5C 174.683,127.012 173.683,129.012 173.5,131.5C 175.199,131.473 176.533,130.806 177.5,129.5C 184.011,130.818 190.678,130.818 197.5,129.5C 206.085,118.65 214.418,107.65 222.5,96.5C 223.473,94.8608 224.806,93.5274 226.5,92.5 Z"/></g>
<g><path style="opacity:0.005" fill="#23201c" d="M 156.5,136.5 C 150.853,141.143 145.186,145.81 139.5,150.5C 139.167,150.333 138.833,150.167 138.5,150C 139.249,148.266 139.749,146.433 140,144.5C 142.996,142.267 145.829,139.934 148.5,137.5C 155.804,132.176 163.137,126.843 170.5,121.5C 171.59,122.391 171.59,123.391 170.5,124.5C 166.083,128.926 161.416,132.926 156.5,136.5 Z"/></g>
<g><path style="opacity:0.004" fill="#302a23" d="M 125.5,140.5 C 126.315,141.837 127.482,142.837 129,143.5C 129.808,145.579 129.641,147.579 128.5,149.5C 122.318,144.251 115.985,139.251 109.5,134.5C 106.192,131.365 102.692,128.365 99,125.5C 98.7265,123.671 97.8932,122.171 96.5,121C 96.8333,120.833 97.1667,120.667 97.5,120.5C 106.591,127.605 115.925,134.271 125.5,140.5 Z"/></g>
<g><path style="opacity:0.004" fill="#0000ff" d="M 249.5,143.5 C 252.001,143.511 252.168,144.178 250,145.5C 249.536,144.906 249.369,144.239 249.5,143.5 Z"/></g>
<g><path style="opacity:0.004" fill="#0000ff" d="M 246.5,149.5 C 247.386,148.224 248.386,148.224 249.5,149.5C 248.767,150.087 247.767,150.087 246.5,149.5 Z"/></g>
<g><path style="opacity:1" fill="#e4c09d" d="M 126.5,134.5 C 129.475,135.655 132.142,137.322 134.5,139.5C 137.536,137.448 140.536,135.448 143.5,133.5C 146.301,134.276 147.968,135.609 148.5,137.5C 145.829,139.934 142.996,142.267 140,144.5C 139.749,146.433 139.249,148.266 138.5,150C 138.833,150.167 139.167,150.333 139.5,150.5C 145.186,145.81 150.853,141.143 156.5,136.5C 157.5,136.5 158.5,136.5 159.5,136.5C 159.5,137.5 159.5,138.5 159.5,139.5C 152.514,144.82 146.18,150.82 140.5,157.5C 139.679,160.447 139.179,163.447 139,166.5C 137.257,168.321 135.757,170.321 134.5,172.5C 130.681,167.86 128.848,162.527 129,156.5C 122.971,151.301 117.138,145.967 111.5,140.5C 111.141,138.629 110.141,137.129 108.5,136C 109.056,135.617 109.389,135.117 109.5,134.5C 115.985,139.251 122.318,144.251 128.5,149.5C 129.641,147.579 129.808,145.579 129,143.5C 127.482,142.837 126.315,141.837 125.5,140.5C 123.494,137.161 120.827,134.494 117.5,132.5C 118,132.167 118.5,131.833 119,131.5C 121.291,132.987 123.791,133.987 126.5,134.5 Z"/></g>
<g><path style="opacity:1" fill="#f0c59b" d="M 171.5,138.5 C 177.842,138.334 184.175,138.5 190.5,139C 188.859,140.129 187.859,141.629 187.5,143.5C 178.825,153.657 170.492,164.157 162.5,175C 155.253,178.637 147.92,181.637 140.5,184C 150.98,168.854 161.313,153.687 171.5,138.5 Z"/></g>
<g><path style="opacity:1" fill="#353b3e" d="M 203.5,140.5 C 204.166,148.159 204.5,155.993 204.5,164C 204.595,173.548 204.095,183.048 203,192.5C 201.667,193.833 200.333,195.167 199,196.5C 198.5,179.837 198.333,163.17 198.5,146.5C 199.5,145.167 200.5,143.833 201.5,142.5C 202.5,142.167 203.167,141.5 203.5,140.5 Z"/></g>
<g><path style="opacity:1" fill="#e9c29e" d="M 98.5,138.5 C 108.114,152.976 117.614,167.643 127,182.5C 127.667,183.167 127.667,183.833 127,184.5C 120.711,181.274 114.211,178.441 107.5,176C 99.319,164.666 90.6523,153.833 81.5,143.5C 80.8466,142.193 80.1799,140.86 79.5,139.5C 85.7985,138.504 92.1318,138.17 98.5,138.5 Z"/></g>
<g><path style="opacity:1" fill="#f8c390" d="M 82.5,139.5 C 87.0795,139.33 91.7461,139.663 96.5,140.5C 99.0626,143.354 100.563,146.688 101,150.5C 101.333,150.167 101.667,149.833 102,149.5C 103,151.833 104.667,153.5 107,154.5C 107.934,158.961 108.268,163.294 108,167.5C 108.216,165.616 108.883,163.949 110,162.5C 114.211,166.568 117.711,171.235 120.5,176.5C 116.374,179.087 114.374,177.754 114.5,172.5C 112.263,173.449 109.929,174.116 107.5,174.5C 106.664,171.813 105.164,169.48 103,167.5C 102.667,163.5 102.333,159.5 102,155.5C 100.989,154.663 99.8221,154.33 98.5,154.5C 98.7852,156.288 98.4519,157.955 97.5,159.5C 96.7579,157.892 96.5913,156.225 97,154.5C 96.586,154.957 96.086,155.291 95.5,155.5C 89.9574,150.977 85.6241,145.643 82.5,139.5 Z"/></g>
<g><path style="opacity:0.831" fill="#8d7965" d="M 46.5,102.5 C 45.506,112.319 45.1726,122.319 45.5,132.5C 45.5,154.833 45.5,177.167 45.5,199.5C 44.5017,167.004 44.1684,134.338 44.5,101.5C 45.3274,100.561 45.9941,100.895 46.5,102.5 Z"/></g>
<g><path style="opacity:0.722" fill="#9e9181" d="M 222.5,102.5 C 222.56,101.957 222.893,101.624 223.5,101.5C 224.493,106.12 224.827,110.786 224.5,115.5C 224.272,119.39 224.606,123.224 225.5,127C 224.847,151.307 224.181,175.473 223.5,199.5C 223.5,177.167 223.5,154.833 223.5,132.5C 223.827,122.319 223.494,112.319 222.5,102.5 Z"/></g>
<g><path style="opacity:1" fill="#efc7a1" d="M 71.5,136.5 C 74.5,139.833 77.5,143.167 80.5,146.5C 80.5,146.833 80.5,147.167 80.5,147.5C 80.8313,176.338 80.498,205.005 79.5,233.5C 67.521,222.854 56.1877,211.521 45.5,199.5C 45.5,177.167 45.5,154.833 45.5,132.5C 47.0257,131.895 48.0257,130.729 48.5,129C 53.0855,128.803 57.5855,128.303 62,127.5C 64.2298,131.524 67.3964,134.524 71.5,136.5 Z"/></g>
<g><path style="opacity:0.004" fill="#040301" d="M 65.5,140.5 C 67.177,142.54 68.8437,144.54 70.5,146.5C 70.5,151.5 70.5,156.5 70.5,161.5C 68.8333,161.5 67.1667,161.5 65.5,161.5C 64.1901,154.401 64.1901,147.401 65.5,140.5 Z"/></g>
<g><path style="opacity:1" fill="#f9c394" d="M 61.5,181.5 C 60.5,181.167 59.8333,180.5 59.5,179.5C 59.6633,177.143 59.4966,174.81 59,172.5C 58.6667,172.833 58.3333,173.167 58,173.5C 56.2866,172.122 54.9533,170.455 54,168.5C 53.6924,169.308 53.1924,169.975 52.5,170.5C 51.1667,169.167 49.8333,169.167 48.5,170.5C 47.5012,159.52 47.1679,148.52 47.5,137.5C 52.5,137.5 57.5,137.5 62.5,137.5C 62.7659,152.196 62.4326,166.862 61.5,181.5 Z"/></g>
<g><path style="opacity:1" fill="#f3cba4" d="M 223.5,132.5 C 223.5,154.833 223.5,177.167 223.5,199.5C 212.5,211.167 201.167,222.5 189.5,233.5C 188.502,205.005 188.169,176.338 188.5,147.5C 189.317,149.969 189.817,152.635 190,155.5C 190.333,178.167 190.667,200.833 191,223.5C 191.333,221.5 191.667,219.5 192,217.5C 192.837,215.993 194.004,215.493 195.5,216C 194.663,217.011 194.33,218.178 194.5,219.5C 197.491,219.67 199.491,218.337 200.5,215.5C 207.447,213.769 211.614,209.435 213,202.5C 215.741,200.933 216.908,198.599 216.5,195.5C 213.739,196.085 212.073,195.085 211.5,192.5C 212.055,190.278 213.055,188.278 214.5,186.5C 214.333,185.833 214.167,185.167 214,184.5C 213.626,185.416 213.126,186.25 212.5,187C 210.527,187.495 208.527,187.662 206.5,187.5C 207.724,196.186 204.057,200.519 195.5,200.5C 196.039,181.834 196.706,163.168 197.5,144.5C 198.622,143.37 199.956,142.703 201.5,142.5C 200.5,143.833 199.5,145.167 198.5,146.5C 197.338,163.995 197.171,181.662 198,199.5C 202.821,196.375 205.488,192.042 206,186.5C 209,183.5 212,180.5 215,177.5C 215.83,182.143 216.497,186.81 217,191.5C 217.667,185.167 217.667,178.833 217,172.5C 213.333,176.167 209.667,179.833 206,183.5C 205.667,168.5 205.333,153.5 205,138.5C 204.283,139.044 203.783,139.711 203.5,140.5C 202.355,139.207 202.689,138.041 204.5,137C 203.333,135.833 202.167,134.667 201,133.5C 199.649,136.196 197.816,138.53 195.5,140.5C 194.893,140.376 194.56,140.043 194.5,139.5C 196.603,136.28 198.936,133.28 201.5,130.5C 202.329,131.332 203.162,130.999 204,129.5C 204.741,130.641 205.575,130.641 206.5,129.5C 209.468,131.662 212.634,131.995 216,130.5C 218.456,132.285 220.956,132.952 223.5,132.5 Z"/></g>
<g><path style="opacity:1" fill="#f8c493" d="M 208.5,138.5 C 213.367,138.356 217.867,138.69 222,139.5C 222.667,156.833 222.667,174.167 222,191.5C 220.761,185.944 220.094,180.278 220,174.5C 218.883,173.051 218.216,171.384 218,169.5C 216.627,169.596 215.127,169.43 213.5,169C 212.333,170.167 211.167,171.333 210,172.5C 210.046,174.313 209.88,175.979 209.5,177.5C 208.369,178.604 207.535,178.271 207,176.5C 206.575,163.747 207.075,151.081 208.5,138.5 Z"/></g>
<g><path style="opacity:1" fill="#4f4338" d="M 65.5,140.5 C 64.1901,147.401 64.1901,154.401 65.5,161.5C 65.3335,171.839 65.5002,182.172 66,192.5C 67,193.5 68,194.5 69,195.5C 70.4765,184.329 70.9765,172.996 70.5,161.5C 70.5,156.5 70.5,151.5 70.5,146.5C 71.6619,163.995 71.8286,181.662 71,199.5C 66.1791,196.375 63.5125,192.042 63,186.5C 60.3176,183.65 57.4843,180.984 54.5,178.5C 53.2739,182.749 52.6073,187.083 52.5,191.5C 51.6618,191.158 51.3284,190.492 51.5,189.5C 51.3339,183.824 51.5006,178.157 52,172.5C 54.3697,175.039 56.8697,177.372 59.5,179.5C 59.8333,180.5 60.5,181.167 61.5,181.5C 61.7828,182.289 62.2828,182.956 63,183.5C 63.3333,168.5 63.6667,153.5 64,138.5C 64.7172,139.044 65.2172,139.711 65.5,140.5 Z"/></g>
<g><path style="opacity:1" fill="#333d42" d="M 65.5,161.5 C 67.1667,161.5 68.8333,161.5 70.5,161.5C 70.9765,172.996 70.4765,184.329 69,195.5C 68,194.5 67,193.5 66,192.5C 65.5002,182.172 65.3335,171.839 65.5,161.5 Z"/></g>
<g><path style="opacity:1" fill="#574030" d="M 198.5,146.5 C 198.333,163.17 198.5,179.837 199,196.5C 200.333,195.167 201.667,193.833 203,192.5C 204.095,183.048 204.595,173.548 204.5,164C 204.5,155.993 204.166,148.159 203.5,140.5C 203.783,139.711 204.283,139.044 205,138.5C 205.333,153.5 205.667,168.5 206,183.5C 209.667,179.833 213.333,176.167 217,172.5C 217.667,178.833 217.667,185.167 217,191.5C 216.497,186.81 215.83,182.143 215,177.5C 212,180.5 209,183.5 206,186.5C 205.488,192.042 202.821,196.375 198,199.5C 197.171,181.662 197.338,163.995 198.5,146.5 Z"/></g>
<g><path style="opacity:0.798" fill="#977e68" d="M 188.5,147.5 C 188.169,176.338 188.502,205.005 189.5,233.5C 189.631,234.376 189.298,235.043 188.5,235.5C 187.829,206.934 187.163,178.434 186.5,150C 187.066,149.005 187.733,148.172 188.5,147.5 Z"/></g>
<g><path style="opacity:1" fill="#f9c392" d="M 203.5,140.5 C 203.167,141.5 202.5,142.167 201.5,142.5C 199.956,142.703 198.622,143.37 197.5,144.5C 196.706,163.168 196.039,181.834 195.5,200.5C 204.057,200.519 207.724,196.186 206.5,187.5C 208.527,187.662 210.527,187.495 212.5,187C 213.126,186.25 213.626,185.416 214,184.5C 214.167,185.167 214.333,185.833 214.5,186.5C 213.055,188.278 212.055,190.278 211.5,192.5C 212.073,195.085 213.739,196.085 216.5,195.5C 216.908,198.599 215.741,200.933 213,202.5C 211.614,209.435 207.447,213.769 200.5,215.5C 199.491,218.337 197.491,219.67 194.5,219.5C 194.33,218.178 194.663,217.011 195.5,216C 194.004,215.493 192.837,215.993 192,217.5C 191.667,219.5 191.333,221.5 191,223.5C 190.667,200.833 190.333,178.167 190,155.5C 189.817,152.635 189.317,149.969 188.5,147.5C 189.11,146.609 189.443,145.609 189.5,144.5C 191.395,143.027 193.061,141.36 194.5,139.5C 194.56,140.043 194.893,140.376 195.5,140.5C 197.816,138.53 199.649,136.196 201,133.5C 202.167,134.667 203.333,135.833 204.5,137C 202.689,138.041 202.355,139.207 203.5,140.5 Z"/></g>
<g><path style="opacity:0.471" fill="#a89278" d="M 80.5,147.5 C 81.271,150.846 81.9376,154.346 82.5,158C 81.1755,180.709 81.1755,203.375 82.5,226C 81.8702,229.129 81.2036,232.296 80.5,235.5C 79.7025,235.043 79.3691,234.376 79.5,233.5C 80.498,205.005 80.8313,176.338 80.5,147.5 Z"/></g>
<g><path style="opacity:1" fill="#fac391" d="M 51.5,189.5 C 51.3284,190.492 51.6618,191.158 52.5,191.5C 54.369,189.365 55.0356,186.698 54.5,183.5C 55.5,183.5 56.5,183.5 57.5,183.5C 57.1281,186.022 57.9614,188.022 60,189.5C 60.3333,189.167 60.6667,188.833 61,188.5C 62.7758,192.746 62.2758,196.746 59.5,200.5C 59.98,202.949 60.98,205.115 62.5,207C 61.8333,207.333 61.1667,207.667 60.5,208C 64.7835,209.326 69.1168,209.992 73.5,210C 76.3545,207.922 76.6878,205.755 74.5,203.5C 73.0499,204.85 72.3832,206.516 72.5,208.5C 70.6916,208.509 69.0249,208.009 67.5,207C 66.7581,204.434 65.4247,202.267 63.5,200.5C 63.6667,199.833 63.8333,199.167 64,198.5C 66.5094,200.437 69.3427,201.437 72.5,201.5C 73.0882,182.507 73.7549,163.507 74.5,144.5C 77.5351,148.442 78.2017,152.775 76.5,157.5C 78.0354,180.782 78.5354,204.116 78,227.5C 77.6258,226.584 77.1258,225.75 76.5,225C 74.3921,224.64 72.3921,223.973 70.5,223C 65.679,218.345 61.0123,213.512 56.5,208.5C 55.066,206.78 54.2326,204.78 54,202.5C 48.2635,198.539 46.9302,193.205 50,186.5C 50.2321,187.737 50.7321,188.737 51.5,189.5 Z"/></g>
</svg>
